<svg width="18" height="19" viewBox="0 0 18 19" fill="none" xmlns="http://www.w3.org/2000/svg">
<path d="M15.75 5.45897C15.735 5.45897 15.7125 5.45897 15.69 5.45897C11.7225 5.05128 7.7625 4.89744 3.84 5.30513L2.31 5.45897C1.995 5.48974 1.7175 5.25897 1.6875 4.9359C1.6575 4.61282 1.8825 4.3359 2.19 4.30513L3.72 4.15128C7.71 3.7359 11.7525 3.89744 15.8025 4.30513C16.11 4.3359 16.335 4.62051 16.305 4.9359C16.2825 5.2359 16.035 5.45897 15.75 5.45897Z" fill="white"/>
<path d="M6.37495 4.68205C6.34495 4.68205 6.31495 4.68205 6.27745 4.67436C5.97745 4.62051 5.76745 4.32051 5.81995 4.01282L5.98495 3.00513C6.10495 2.26667 6.26995 1.24359 8.01745 1.24359H9.98245C11.7374 1.24359 11.9024 2.30513 12.0149 3.01282L12.1799 4.01282C12.2324 4.32821 12.0224 4.62821 11.7224 4.67436C11.4149 4.72821 11.1224 4.51282 11.0774 4.20513L10.9124 3.20513C10.8074 2.5359 10.7849 2.40513 9.98995 2.40513H8.02495C7.22995 2.40513 7.21495 2.51282 7.10245 3.19744L6.92995 4.19744C6.88495 4.48205 6.64495 4.68205 6.37495 4.68205Z" fill="white"/>
<path d="M11.4075 17.782H6.59255C3.97505 17.782 3.87005 16.2974 3.78755 15.0974L3.30005 7.35128C3.27755 7.0359 3.51755 6.75897 3.82505 6.7359C4.14005 6.72051 4.40255 6.95897 4.42505 7.27436L4.91255 15.0205C4.99505 16.1897 5.02505 16.6282 6.59255 16.6282H11.4075C12.9825 16.6282 13.0125 16.1897 13.0875 15.0205L13.575 7.27436C13.5975 6.95897 13.8675 6.72051 14.175 6.7359C14.4825 6.75897 14.7225 7.0282 14.7 7.35128L14.2125 15.0974C14.13 16.2974 14.025 17.782 11.4075 17.782Z" fill="white"/>
<path d="M10.2451 13.5513H7.74756C7.44006 13.5513 7.18506 13.2897 7.18506 12.9744C7.18506 12.659 7.44006 12.3974 7.74756 12.3974H10.2451C10.5526 12.3974 10.8076 12.659 10.8076 12.9744C10.8076 13.2897 10.5526 13.5513 10.2451 13.5513Z" fill="white"/>
<path d="M10.875 10.4744H7.125C6.8175 10.4744 6.5625 10.2128 6.5625 9.89743C6.5625 9.58205 6.8175 9.32051 7.125 9.32051H10.875C11.1825 9.32051 11.4375 9.58205 11.4375 9.89743C11.4375 10.2128 11.1825 10.4744 10.875 10.4744Z" fill="white"/>
</svg>
