<svg width="21" height="20" viewBox="0 0 21 20" fill="none" xmlns="http://www.w3.org/2000/svg">
<path d="M15.6166 18.0167C14.8833 18.2333 14.0166 18.3333 13 18.3333H7.99997C6.9833 18.3333 6.11663 18.2333 5.3833 18.0167C5.56663 15.85 7.79163 14.1416 10.5 14.1416C13.2083 14.1416 15.4333 15.85 15.6166 18.0167Z" stroke="#738499" stroke-width="1.5" stroke-linecap="round" stroke-linejoin="round"/>
<path d="M13 1.66667H7.99996C3.83329 1.66667 2.16663 3.33334 2.16663 7.50001V12.5C2.16663 15.65 3.11663 17.375 5.38329 18.0167C5.56663 15.85 7.79163 14.1416 10.5 14.1416C13.2083 14.1416 15.4333 15.85 15.6166 18.0167C17.8833 17.375 18.8333 15.65 18.8333 12.5V7.50001C18.8333 3.33334 17.1666 1.66667 13 1.66667ZM10.5 11.8083C8.84996 11.8083 7.51662 10.4667 7.51662 8.81669C7.51662 7.16669 8.84996 5.83334 10.5 5.83334C12.15 5.83334 13.4833 7.16669 13.4833 8.81669C13.4833 10.4667 12.15 11.8083 10.5 11.8083Z" stroke="#738499" stroke-width="1.5" stroke-linecap="round" stroke-linejoin="round"/>
<path d="M13.4834 8.81668C13.4834 10.4667 12.1501 11.8083 10.5001 11.8083C8.85006 11.8083 7.51672 10.4667 7.51672 8.81668C7.51672 7.16668 8.85006 5.83333 10.5001 5.83333C12.1501 5.83333 13.4834 7.16668 13.4834 8.81668Z" stroke="#738499" stroke-width="1.5" stroke-linecap="round" stroke-linejoin="round"/>
</svg>
